<svg id="visual" viewBox="0 0 1920 1080" width="1920" height="1080" xmlns="http://www.w3.org/2000/svg" xmlns:xlink="http://www.w3.org/1999/xlink" version="1.1"><rect x="0" y="0" width="1920" height="1080" fill="#141418"></rect><path d="M0 709L53.3 682.5C106.7 656 213.3 603 320 590.7C426.7 578.3 533.3 606.7 640 652.2C746.7 697.7 853.3 760.3 960 718.8C1066.7 677.3 1173.3 531.7 1280 534C1386.7 536.3 1493.3 686.7 1600 753.7C1706.7 820.7 1813.3 804.3 1866.7 796.2L1920 788L1920 1081L1866.7 1081C1813.3 1081 1706.7 1081 1600 1081C1493.3 1081 1386.7 1081 1280 1081C1173.3 1081 1066.7 1081 960 1081C853.3 1081 746.7 1081 640 1081C533.3 1081 426.7 1081 320 1081C213.3 1081 106.7 1081 53.3 1081L0 1081Z" fill="#0066FF" stroke-linecap="round" stroke-linejoin="miter"></path></svg>